<mxfile host="app.diagrams.net" agent="Mozilla/5.0 (Windows NT 10.0; Win64; x64; rv:138.0) Gecko/20100101 Firefox/138.0" version="27.0.5">
  <diagram name="Página-1" id="Xt20s_91scgGeG7ZL-7Z">
    <mxGraphModel dx="1426" dy="799" grid="1" gridSize="10" guides="1" tooltips="1" connect="1" arrows="1" fold="1" page="1" pageScale="1" pageWidth="827" pageHeight="1169" math="0" shadow="0">
      <root>
        <mxCell id="0" />
        <mxCell id="1" parent="0" />
        <mxCell id="hi6TGsPlZXTH8VyN5RC_-2" value="" style="shape=table;startSize=0;container=1;collapsible=0;childLayout=tableLayout;fontSize=16;" parent="1" vertex="1">
          <mxGeometry y="40" width="820" height="40" as="geometry" />
        </mxCell>
        <mxCell id="hi6TGsPlZXTH8VyN5RC_-3" value="" style="shape=tableRow;horizontal=0;startSize=0;swimlaneHead=0;swimlaneBody=0;strokeColor=inherit;top=0;left=0;bottom=0;right=0;collapsible=0;dropTarget=0;fillColor=none;points=[[0,0.5],[1,0.5]];portConstraint=eastwest;fontSize=16;" parent="hi6TGsPlZXTH8VyN5RC_-2" vertex="1">
          <mxGeometry width="820" height="40" as="geometry" />
        </mxCell>
        <mxCell id="hi6TGsPlZXTH8VyN5RC_-4" value="&lt;u&gt;&lt;font style=&quot;font-size: 13px;&quot;&gt;ID_Alquiler&lt;/font&gt;&lt;/u&gt;" style="shape=partialRectangle;html=1;whiteSpace=wrap;connectable=0;strokeColor=#6c8ebf;overflow=hidden;fillColor=#dae8fc;top=0;left=0;bottom=0;right=0;pointerEvents=1;fontSize=16;" parent="hi6TGsPlZXTH8VyN5RC_-3" vertex="1">
          <mxGeometry width="80" height="40" as="geometry">
            <mxRectangle width="80" height="40" as="alternateBounds" />
          </mxGeometry>
        </mxCell>
        <mxCell id="hi6TGsPlZXTH8VyN5RC_-5" value="&lt;font style=&quot;font-size: 12px;&quot;&gt;Metodo_pago&lt;/font&gt;" style="shape=partialRectangle;html=1;whiteSpace=wrap;connectable=0;strokeColor=inherit;overflow=hidden;fillColor=none;top=0;left=0;bottom=0;right=0;pointerEvents=1;fontSize=16;" parent="hi6TGsPlZXTH8VyN5RC_-3" vertex="1">
          <mxGeometry x="80" width="90" height="40" as="geometry">
            <mxRectangle width="90" height="40" as="alternateBounds" />
          </mxGeometry>
        </mxCell>
        <mxCell id="hi6TGsPlZXTH8VyN5RC_-6" value="&lt;font style=&quot;font-size: 12px;&quot;&gt;Fecha_Desde&lt;/font&gt;" style="shape=partialRectangle;html=1;whiteSpace=wrap;connectable=0;strokeColor=inherit;overflow=hidden;fillColor=none;top=0;left=0;bottom=0;right=0;pointerEvents=1;fontSize=16;" parent="hi6TGsPlZXTH8VyN5RC_-3" vertex="1">
          <mxGeometry x="170" width="90" height="40" as="geometry">
            <mxRectangle width="90" height="40" as="alternateBounds" />
          </mxGeometry>
        </mxCell>
        <mxCell id="hi6TGsPlZXTH8VyN5RC_-15" value="&lt;font style=&quot;font-size: 12px;&quot;&gt;Fecha_Hasta&lt;/font&gt;" style="shape=partialRectangle;html=1;whiteSpace=wrap;connectable=0;strokeColor=inherit;overflow=hidden;fillColor=none;top=0;left=0;bottom=0;right=0;pointerEvents=1;fontSize=16;" parent="hi6TGsPlZXTH8VyN5RC_-3" vertex="1">
          <mxGeometry x="260" width="90" height="40" as="geometry">
            <mxRectangle width="90" height="40" as="alternateBounds" />
          </mxGeometry>
        </mxCell>
        <mxCell id="hi6TGsPlZXTH8VyN5RC_-16" value="&lt;font style=&quot;font-size: 12px;&quot;&gt;Fecha_Devolución&lt;/font&gt;" style="shape=partialRectangle;html=1;whiteSpace=wrap;connectable=0;strokeColor=inherit;overflow=hidden;fillColor=none;top=0;left=0;bottom=0;right=0;pointerEvents=1;fontSize=16;" parent="hi6TGsPlZXTH8VyN5RC_-3" vertex="1">
          <mxGeometry x="350" width="110" height="40" as="geometry">
            <mxRectangle width="110" height="40" as="alternateBounds" />
          </mxGeometry>
        </mxCell>
        <mxCell id="hi6TGsPlZXTH8VyN5RC_-17" value="&lt;font style=&quot;font-size: 12px;&quot;&gt;Importe&lt;/font&gt;" style="shape=partialRectangle;html=1;whiteSpace=wrap;connectable=0;strokeColor=inherit;overflow=hidden;fillColor=none;top=0;left=0;bottom=0;right=0;pointerEvents=1;fontSize=16;" parent="hi6TGsPlZXTH8VyN5RC_-3" vertex="1">
          <mxGeometry x="460" width="60" height="40" as="geometry">
            <mxRectangle width="60" height="40" as="alternateBounds" />
          </mxGeometry>
        </mxCell>
        <mxCell id="hi6TGsPlZXTH8VyN5RC_-18" value="&lt;font style=&quot;font-size: 12px;&quot;&gt;Nro_Comprobante&lt;/font&gt;" style="shape=partialRectangle;html=1;whiteSpace=wrap;connectable=0;strokeColor=inherit;overflow=hidden;fillColor=none;top=0;left=0;bottom=0;right=0;pointerEvents=1;fontSize=16;" parent="hi6TGsPlZXTH8VyN5RC_-3" vertex="1">
          <mxGeometry x="520" width="120" height="40" as="geometry">
            <mxRectangle width="120" height="40" as="alternateBounds" />
          </mxGeometry>
        </mxCell>
        <mxCell id="hi6TGsPlZXTH8VyN5RC_-19" value="&lt;font style=&quot;font-size: 13px;&quot;&gt;ID_Cliente&lt;/font&gt;" style="shape=partialRectangle;html=1;whiteSpace=wrap;connectable=0;strokeColor=inherit;overflow=hidden;fillColor=none;top=0;left=0;bottom=0;right=0;pointerEvents=1;fontSize=16;" parent="hi6TGsPlZXTH8VyN5RC_-3" vertex="1">
          <mxGeometry x="640" width="90" height="40" as="geometry">
            <mxRectangle width="90" height="40" as="alternateBounds" />
          </mxGeometry>
        </mxCell>
        <mxCell id="hi6TGsPlZXTH8VyN5RC_-20" value="&lt;font style=&quot;font-size: 13px;&quot;&gt;ID_Empleado&lt;/font&gt;" style="shape=partialRectangle;html=1;whiteSpace=wrap;connectable=0;strokeColor=inherit;overflow=hidden;fillColor=none;top=0;left=0;bottom=0;right=0;pointerEvents=1;fontSize=16;" parent="hi6TGsPlZXTH8VyN5RC_-3" vertex="1">
          <mxGeometry x="730" width="90" height="40" as="geometry">
            <mxRectangle width="90" height="40" as="alternateBounds" />
          </mxGeometry>
        </mxCell>
        <mxCell id="hi6TGsPlZXTH8VyN5RC_-143" style="edgeStyle=orthogonalEdgeStyle;rounded=0;orthogonalLoop=1;jettySize=auto;html=1;entryX=0.862;entryY=0.996;entryDx=0;entryDy=0;entryPerimeter=0;strokeWidth=2;fillColor=#e1d5e7;strokeColor=#9673a6;endArrow=none;startFill=1;startArrow=classic;" parent="1" source="hi6TGsPlZXTH8VyN5RC_-22" target="hi6TGsPlZXTH8VyN5RC_-33" edge="1">
          <mxGeometry relative="1" as="geometry">
            <mxPoint x="10" y="380" as="targetPoint" />
            <mxPoint x="430" y="410" as="sourcePoint" />
            <Array as="points">
              <mxPoint x="35" y="270" />
              <mxPoint x="650" y="270" />
              <mxPoint x="650" y="890" />
              <mxPoint x="279" y="890" />
              <mxPoint x="279" y="800" />
            </Array>
          </mxGeometry>
        </mxCell>
        <mxCell id="hi6TGsPlZXTH8VyN5RC_-21" value="" style="shape=table;startSize=0;container=1;collapsible=0;childLayout=tableLayout;fontSize=16;" parent="1" vertex="1">
          <mxGeometry y="210" width="250" height="40" as="geometry" />
        </mxCell>
        <mxCell id="hi6TGsPlZXTH8VyN5RC_-22" value="" style="shape=tableRow;horizontal=0;startSize=0;swimlaneHead=0;swimlaneBody=0;strokeColor=inherit;top=0;left=0;bottom=0;right=0;collapsible=0;dropTarget=0;fillColor=none;points=[[0,0.5],[1,0.5]];portConstraint=eastwest;fontSize=16;" parent="hi6TGsPlZXTH8VyN5RC_-21" vertex="1">
          <mxGeometry width="250" height="40" as="geometry" />
        </mxCell>
        <mxCell id="hi6TGsPlZXTH8VyN5RC_-23" value="&lt;u&gt;&lt;font style=&quot;font-size: 13px;&quot;&gt;ID_producto&lt;/font&gt;&lt;/u&gt;" style="shape=partialRectangle;html=1;whiteSpace=wrap;connectable=0;strokeColor=#9673a6;overflow=hidden;fillColor=#e1d5e7;top=0;left=0;bottom=0;right=0;pointerEvents=1;fontSize=16;" parent="hi6TGsPlZXTH8VyN5RC_-22" vertex="1">
          <mxGeometry width="80" height="40" as="geometry">
            <mxRectangle width="80" height="40" as="alternateBounds" />
          </mxGeometry>
        </mxCell>
        <mxCell id="hi6TGsPlZXTH8VyN5RC_-24" value="&lt;font style=&quot;font-size: 13px;&quot;&gt;Tipo&lt;/font&gt;" style="shape=partialRectangle;html=1;whiteSpace=wrap;connectable=0;strokeColor=inherit;overflow=hidden;fillColor=none;top=0;left=0;bottom=0;right=0;pointerEvents=1;fontSize=16;" parent="hi6TGsPlZXTH8VyN5RC_-22" vertex="1">
          <mxGeometry x="80" width="40" height="40" as="geometry">
            <mxRectangle width="40" height="40" as="alternateBounds" />
          </mxGeometry>
        </mxCell>
        <mxCell id="hi6TGsPlZXTH8VyN5RC_-25" value="&lt;font style=&quot;font-size: 13px;&quot;&gt;Necesita_mantener&lt;/font&gt;" style="shape=partialRectangle;html=1;whiteSpace=wrap;connectable=0;strokeColor=inherit;overflow=hidden;fillColor=none;top=0;left=0;bottom=0;right=0;pointerEvents=1;fontSize=16;" parent="hi6TGsPlZXTH8VyN5RC_-22" vertex="1">
          <mxGeometry x="120" width="130" height="40" as="geometry">
            <mxRectangle width="130" height="40" as="alternateBounds" />
          </mxGeometry>
        </mxCell>
        <mxCell id="hi6TGsPlZXTH8VyN5RC_-32" value="" style="shape=table;startSize=0;container=1;collapsible=0;childLayout=tableLayout;fontSize=16;" parent="1" vertex="1">
          <mxGeometry y="760" width="300" height="40" as="geometry" />
        </mxCell>
        <mxCell id="hi6TGsPlZXTH8VyN5RC_-33" value="" style="shape=tableRow;horizontal=0;startSize=0;swimlaneHead=0;swimlaneBody=0;strokeColor=inherit;top=0;left=0;bottom=0;right=0;collapsible=0;dropTarget=0;fillColor=none;points=[[0,0.5],[1,0.5]];portConstraint=eastwest;fontSize=16;" parent="hi6TGsPlZXTH8VyN5RC_-32" vertex="1">
          <mxGeometry width="300" height="40" as="geometry" />
        </mxCell>
        <mxCell id="hi6TGsPlZXTH8VyN5RC_-34" value="&lt;u&gt;&lt;font style=&quot;font-size: 13px;&quot;&gt;Id_Repuesto&lt;/font&gt;&lt;/u&gt;" style="shape=partialRectangle;html=1;whiteSpace=wrap;connectable=0;strokeColor=inherit;overflow=hidden;fillColor=none;top=0;left=0;bottom=0;right=0;pointerEvents=1;fontSize=16;" parent="hi6TGsPlZXTH8VyN5RC_-33" vertex="1">
          <mxGeometry width="90" height="40" as="geometry">
            <mxRectangle width="90" height="40" as="alternateBounds" />
          </mxGeometry>
        </mxCell>
        <mxCell id="hi6TGsPlZXTH8VyN5RC_-35" value="&lt;u&gt;&lt;font style=&quot;font-size: 13px;&quot;&gt;Nro_mantenimiento&lt;/font&gt;&lt;/u&gt;" style="shape=partialRectangle;html=1;whiteSpace=wrap;connectable=0;strokeColor=inherit;overflow=hidden;fillColor=none;top=0;left=0;bottom=0;right=0;pointerEvents=1;fontSize=16;" parent="hi6TGsPlZXTH8VyN5RC_-33" vertex="1">
          <mxGeometry x="90" width="130" height="40" as="geometry">
            <mxRectangle width="130" height="40" as="alternateBounds" />
          </mxGeometry>
        </mxCell>
        <mxCell id="hi6TGsPlZXTH8VyN5RC_-36" value="&lt;font style=&quot;font-size: 13px;&quot;&gt;Id_producto&lt;/font&gt;" style="shape=partialRectangle;html=1;whiteSpace=wrap;connectable=0;strokeColor=inherit;overflow=hidden;fillColor=none;top=0;left=0;bottom=0;right=0;pointerEvents=1;fontSize=16;" parent="hi6TGsPlZXTH8VyN5RC_-33" vertex="1">
          <mxGeometry x="220" width="80" height="40" as="geometry">
            <mxRectangle width="80" height="40" as="alternateBounds" />
          </mxGeometry>
        </mxCell>
        <mxCell id="hi6TGsPlZXTH8VyN5RC_-41" value="&lt;h1 style=&quot;margin-top: 0px;&quot;&gt;Alquiler&lt;/h1&gt;" style="text;html=1;whiteSpace=wrap;overflow=hidden;rounded=0;" parent="1" vertex="1">
          <mxGeometry width="180" height="40" as="geometry" />
        </mxCell>
        <mxCell id="hi6TGsPlZXTH8VyN5RC_-42" value="&lt;h1 style=&quot;margin-top: 0px;&quot;&gt;Cliente&lt;/h1&gt;" style="text;html=1;whiteSpace=wrap;overflow=hidden;rounded=0;" parent="1" vertex="1">
          <mxGeometry y="90" width="180" height="40" as="geometry" />
        </mxCell>
        <mxCell id="hi6TGsPlZXTH8VyN5RC_-43" value="&lt;h1 style=&quot;margin-top: 0px;&quot;&gt;Productos&lt;/h1&gt;" style="text;html=1;whiteSpace=wrap;overflow=hidden;rounded=0;" parent="1" vertex="1">
          <mxGeometry y="170" width="180" height="40" as="geometry" />
        </mxCell>
        <mxCell id="hi6TGsPlZXTH8VyN5RC_-44" value="&lt;h1 style=&quot;margin-top: 0px;&quot;&gt;Empleado&lt;/h1&gt;" style="text;html=1;whiteSpace=wrap;overflow=hidden;rounded=0;" parent="1" vertex="1">
          <mxGeometry y="370" width="180" height="40" as="geometry" />
        </mxCell>
        <mxCell id="hi6TGsPlZXTH8VyN5RC_-45" value="&lt;h1 style=&quot;margin-top: 0px;&quot;&gt;Empleado_Mantenimiento&lt;/h1&gt;" style="text;html=1;whiteSpace=wrap;overflow=hidden;rounded=0;" parent="1" vertex="1">
          <mxGeometry y="505" width="310" height="40" as="geometry" />
        </mxCell>
        <mxCell id="hi6TGsPlZXTH8VyN5RC_-46" value="&lt;h1 style=&quot;margin-top: 0px;&quot;&gt;Mantenimiento&lt;/h1&gt;" style="text;html=1;whiteSpace=wrap;overflow=hidden;rounded=0;" parent="1" vertex="1">
          <mxGeometry y="600" width="180" height="40" as="geometry" />
        </mxCell>
        <mxCell id="hi6TGsPlZXTH8VyN5RC_-47" value="&lt;h1 style=&quot;margin-top: 0px;&quot;&gt;Repuestos&lt;/h1&gt;" style="text;html=1;whiteSpace=wrap;overflow=hidden;rounded=0;" parent="1" vertex="1">
          <mxGeometry y="840" width="180" height="40" as="geometry" />
        </mxCell>
        <mxCell id="hi6TGsPlZXTH8VyN5RC_-48" value="&lt;h1 style=&quot;margin-top: 0px;&quot;&gt;Infracción&lt;/h1&gt;" style="text;html=1;whiteSpace=wrap;overflow=hidden;rounded=0;" parent="1" vertex="1">
          <mxGeometry y="1050" width="180" height="40" as="geometry" />
        </mxCell>
        <mxCell id="hi6TGsPlZXTH8VyN5RC_-49" value="&lt;h1 style=&quot;margin-top: 0px;&quot;&gt;Alquiler_producto&lt;/h1&gt;" style="text;html=1;whiteSpace=wrap;overflow=hidden;rounded=0;" parent="1" vertex="1">
          <mxGeometry y="270" width="250" height="40" as="geometry" />
        </mxCell>
        <mxCell id="hi6TGsPlZXTH8VyN5RC_-50" value="&lt;h1 style=&quot;margin-top: 0px;&quot;&gt;Mantenimiento_Realizado&lt;/h1&gt;" style="text;html=1;whiteSpace=wrap;overflow=hidden;rounded=0;" parent="1" vertex="1">
          <mxGeometry y="710" width="300" height="40" as="geometry" />
        </mxCell>
        <mxCell id="hi6TGsPlZXTH8VyN5RC_-141" style="edgeStyle=orthogonalEdgeStyle;rounded=0;orthogonalLoop=1;jettySize=auto;html=1;entryX=0.303;entryY=1.017;entryDx=0;entryDy=0;entryPerimeter=0;strokeWidth=2;fillColor=#f8cecc;strokeColor=#b85450;endArrow=none;startFill=1;startArrow=classic;" parent="1" source="hi6TGsPlZXTH8VyN5RC_-69" target="hi6TGsPlZXTH8VyN5RC_-61" edge="1">
          <mxGeometry relative="1" as="geometry">
            <mxPoint x="340" y="640" as="targetPoint" />
            <Array as="points">
              <mxPoint x="80" y="690" />
              <mxPoint x="320" y="690" />
              <mxPoint x="320" y="610" />
              <mxPoint x="64" y="610" />
            </Array>
          </mxGeometry>
        </mxCell>
        <mxCell id="hi6TGsPlZXTH8VyN5RC_-142" style="edgeStyle=orthogonalEdgeStyle;rounded=0;orthogonalLoop=1;jettySize=auto;html=1;entryX=0.512;entryY=0.954;entryDx=0;entryDy=0;entryPerimeter=0;strokeWidth=2;fillColor=#f8cecc;strokeColor=#b85450;endArrow=none;startFill=1;startArrow=classic;" parent="1" source="hi6TGsPlZXTH8VyN5RC_-69" target="hi6TGsPlZXTH8VyN5RC_-33" edge="1">
          <mxGeometry relative="1" as="geometry">
            <mxPoint x="10" y="750" as="targetPoint" />
            <Array as="points">
              <mxPoint x="80" y="700" />
              <mxPoint x="360" y="700" />
              <mxPoint x="360" y="820" />
              <mxPoint x="154" y="820" />
            </Array>
          </mxGeometry>
        </mxCell>
        <mxCell id="hi6TGsPlZXTH8VyN5RC_-69" value="" style="shape=table;startSize=0;container=1;collapsible=0;childLayout=tableLayout;fontSize=16;" parent="1" vertex="1">
          <mxGeometry y="640" width="260" height="40" as="geometry" />
        </mxCell>
        <mxCell id="hi6TGsPlZXTH8VyN5RC_-70" value="" style="shape=tableRow;horizontal=0;startSize=0;swimlaneHead=0;swimlaneBody=0;strokeColor=inherit;top=0;left=0;bottom=0;right=0;collapsible=0;dropTarget=0;fillColor=none;points=[[0,0.5],[1,0.5]];portConstraint=eastwest;fontSize=16;" parent="hi6TGsPlZXTH8VyN5RC_-69" vertex="1">
          <mxGeometry width="260" height="40" as="geometry" />
        </mxCell>
        <mxCell id="hi6TGsPlZXTH8VyN5RC_-71" value="&lt;u&gt;&lt;font style=&quot;font-size: 13px;&quot;&gt;Nro_mantenimiento&lt;/font&gt;&lt;/u&gt;" style="shape=partialRectangle;html=1;whiteSpace=wrap;connectable=0;strokeColor=#b85450;overflow=hidden;fillColor=#f8cecc;top=0;left=0;bottom=0;right=0;pointerEvents=1;fontSize=16;" parent="hi6TGsPlZXTH8VyN5RC_-70" vertex="1">
          <mxGeometry width="130" height="40" as="geometry">
            <mxRectangle width="130" height="40" as="alternateBounds" />
          </mxGeometry>
        </mxCell>
        <mxCell id="hi6TGsPlZXTH8VyN5RC_-72" value="&lt;font style=&quot;font-size: 13px;&quot;&gt;Tipo&lt;/font&gt;" style="shape=partialRectangle;html=1;whiteSpace=wrap;connectable=0;strokeColor=inherit;overflow=hidden;fillColor=none;top=0;left=0;bottom=0;right=0;pointerEvents=1;fontSize=16;" parent="hi6TGsPlZXTH8VyN5RC_-70" vertex="1">
          <mxGeometry x="130" width="60" height="40" as="geometry">
            <mxRectangle width="60" height="40" as="alternateBounds" />
          </mxGeometry>
        </mxCell>
        <mxCell id="hi6TGsPlZXTH8VyN5RC_-73" value="&lt;font style=&quot;font-size: 13px;&quot;&gt;Fecha&lt;/font&gt;" style="shape=partialRectangle;html=1;whiteSpace=wrap;connectable=0;strokeColor=inherit;overflow=hidden;fillColor=none;top=0;left=0;bottom=0;right=0;pointerEvents=1;fontSize=16;" parent="hi6TGsPlZXTH8VyN5RC_-70" vertex="1">
          <mxGeometry x="190" width="70" height="40" as="geometry">
            <mxRectangle width="70" height="40" as="alternateBounds" />
          </mxGeometry>
        </mxCell>
        <mxCell id="hi6TGsPlZXTH8VyN5RC_-88" value="" style="shape=table;startSize=0;container=1;collapsible=0;childLayout=tableLayout;fontSize=16;" parent="1" vertex="1">
          <mxGeometry y="890" width="180" height="40" as="geometry" />
        </mxCell>
        <mxCell id="hi6TGsPlZXTH8VyN5RC_-89" value="" style="shape=tableRow;horizontal=0;startSize=0;swimlaneHead=0;swimlaneBody=0;strokeColor=inherit;top=0;left=0;bottom=0;right=0;collapsible=0;dropTarget=0;fillColor=none;points=[[0,0.5],[1,0.5]];portConstraint=eastwest;fontSize=16;" parent="hi6TGsPlZXTH8VyN5RC_-88" vertex="1">
          <mxGeometry width="180" height="40" as="geometry" />
        </mxCell>
        <mxCell id="hi6TGsPlZXTH8VyN5RC_-90" value="&lt;u&gt;&lt;font style=&quot;font-size: 13px;&quot;&gt;Id_Repuesto&lt;/font&gt;&lt;/u&gt;" style="shape=partialRectangle;html=1;whiteSpace=wrap;connectable=0;strokeColor=#666666;overflow=hidden;fillColor=#f5f5f5;top=0;left=0;bottom=0;right=0;pointerEvents=1;fontSize=16;fontColor=#333333;" parent="hi6TGsPlZXTH8VyN5RC_-89" vertex="1">
          <mxGeometry width="90" height="40" as="geometry">
            <mxRectangle width="90" height="40" as="alternateBounds" />
          </mxGeometry>
        </mxCell>
        <mxCell id="hi6TGsPlZXTH8VyN5RC_-91" value="&lt;font style=&quot;font-size: 13px;&quot;&gt;Nombre_rep&lt;/font&gt;" style="shape=partialRectangle;html=1;whiteSpace=wrap;connectable=0;strokeColor=inherit;overflow=hidden;fillColor=none;top=0;left=0;bottom=0;right=0;pointerEvents=1;fontSize=16;" parent="hi6TGsPlZXTH8VyN5RC_-89" vertex="1">
          <mxGeometry x="90" width="90" height="40" as="geometry">
            <mxRectangle width="90" height="40" as="alternateBounds" />
          </mxGeometry>
        </mxCell>
        <mxCell id="hi6TGsPlZXTH8VyN5RC_-97" value="" style="shape=table;startSize=0;container=1;collapsible=0;childLayout=tableLayout;fontSize=16;" parent="1" vertex="1">
          <mxGeometry y="990" width="180" height="40" as="geometry" />
        </mxCell>
        <mxCell id="hi6TGsPlZXTH8VyN5RC_-98" value="" style="shape=tableRow;horizontal=0;startSize=0;swimlaneHead=0;swimlaneBody=0;strokeColor=inherit;top=0;left=0;bottom=0;right=0;collapsible=0;dropTarget=0;fillColor=none;points=[[0,0.5],[1,0.5]];portConstraint=eastwest;fontSize=16;" parent="hi6TGsPlZXTH8VyN5RC_-97" vertex="1">
          <mxGeometry width="180" height="40" as="geometry" />
        </mxCell>
        <mxCell id="hi6TGsPlZXTH8VyN5RC_-99" value="&lt;u&gt;&lt;font style=&quot;font-size: 13px;&quot;&gt;ID_género&lt;/font&gt;&lt;/u&gt;" style="shape=partialRectangle;html=1;whiteSpace=wrap;connectable=0;overflow=hidden;top=0;left=0;bottom=0;right=0;pointerEvents=1;fontSize=16;fillColor=#C6613C;strokeColor=#6D1F00;fontColor=#ffffff;" parent="hi6TGsPlZXTH8VyN5RC_-98" vertex="1">
          <mxGeometry width="90" height="40" as="geometry">
            <mxRectangle width="90" height="40" as="alternateBounds" />
          </mxGeometry>
        </mxCell>
        <mxCell id="hi6TGsPlZXTH8VyN5RC_-100" value="&lt;font style=&quot;font-size: 13px;&quot;&gt;Descripción&lt;/font&gt;" style="shape=partialRectangle;html=1;whiteSpace=wrap;connectable=0;strokeColor=inherit;overflow=hidden;fillColor=none;top=0;left=0;bottom=0;right=0;pointerEvents=1;fontSize=16;" parent="hi6TGsPlZXTH8VyN5RC_-98" vertex="1">
          <mxGeometry x="90" width="90" height="40" as="geometry">
            <mxRectangle width="90" height="40" as="alternateBounds" />
          </mxGeometry>
        </mxCell>
        <mxCell id="hi6TGsPlZXTH8VyN5RC_-106" value="" style="shape=table;startSize=0;container=1;collapsible=0;childLayout=tableLayout;fontSize=16;" parent="1" vertex="1">
          <mxGeometry y="1090" width="320" height="40" as="geometry" />
        </mxCell>
        <mxCell id="hi6TGsPlZXTH8VyN5RC_-107" value="" style="shape=tableRow;horizontal=0;startSize=0;swimlaneHead=0;swimlaneBody=0;strokeColor=inherit;top=0;left=0;bottom=0;right=0;collapsible=0;dropTarget=0;fillColor=none;points=[[0,0.5],[1,0.5]];portConstraint=eastwest;fontSize=16;" parent="hi6TGsPlZXTH8VyN5RC_-106" vertex="1">
          <mxGeometry width="320" height="40" as="geometry" />
        </mxCell>
        <mxCell id="hi6TGsPlZXTH8VyN5RC_-108" value="&lt;u&gt;&lt;font style=&quot;font-size: 13px;&quot;&gt;ID_Infracción&lt;/font&gt;&lt;/u&gt;" style="shape=partialRectangle;html=1;whiteSpace=wrap;connectable=0;strokeColor=inherit;overflow=hidden;fillColor=none;top=0;left=0;bottom=0;right=0;pointerEvents=1;fontSize=16;" parent="hi6TGsPlZXTH8VyN5RC_-107" vertex="1">
          <mxGeometry width="100" height="40" as="geometry">
            <mxRectangle width="100" height="40" as="alternateBounds" />
          </mxGeometry>
        </mxCell>
        <mxCell id="hi6TGsPlZXTH8VyN5RC_-109" value="&lt;font style=&quot;font-size: 13px;&quot;&gt;Recargo&lt;/font&gt;" style="shape=partialRectangle;html=1;whiteSpace=wrap;connectable=0;strokeColor=inherit;overflow=hidden;fillColor=none;top=0;left=0;bottom=0;right=0;pointerEvents=1;fontSize=16;" parent="hi6TGsPlZXTH8VyN5RC_-107" vertex="1">
          <mxGeometry x="100" width="60" height="40" as="geometry">
            <mxRectangle width="60" height="40" as="alternateBounds" />
          </mxGeometry>
        </mxCell>
        <mxCell id="hi6TGsPlZXTH8VyN5RC_-110" value="&lt;font style=&quot;font-size: 13px;&quot;&gt;Descripción&lt;/font&gt;" style="shape=partialRectangle;html=1;whiteSpace=wrap;connectable=0;strokeColor=inherit;overflow=hidden;fillColor=none;top=0;left=0;bottom=0;right=0;pointerEvents=1;fontSize=16;" parent="hi6TGsPlZXTH8VyN5RC_-107" vertex="1">
          <mxGeometry x="160" width="80" height="40" as="geometry">
            <mxRectangle width="80" height="40" as="alternateBounds" />
          </mxGeometry>
        </mxCell>
        <mxCell id="hi6TGsPlZXTH8VyN5RC_-111" value="&lt;font style=&quot;font-size: 13px;&quot;&gt;ID_Alquiler&lt;/font&gt;" style="shape=partialRectangle;html=1;whiteSpace=wrap;connectable=0;strokeColor=inherit;overflow=hidden;fillColor=none;top=0;left=0;bottom=0;right=0;pointerEvents=1;fontSize=16;" parent="hi6TGsPlZXTH8VyN5RC_-107" vertex="1">
          <mxGeometry x="240" width="80" height="40" as="geometry">
            <mxRectangle width="80" height="40" as="alternateBounds" />
          </mxGeometry>
        </mxCell>
        <mxCell id="hi6TGsPlZXTH8VyN5RC_-115" value="" style="shape=table;startSize=0;container=1;collapsible=0;childLayout=tableLayout;fontSize=16;" parent="1" vertex="1">
          <mxGeometry y="120" width="492" height="40" as="geometry" />
        </mxCell>
        <mxCell id="hi6TGsPlZXTH8VyN5RC_-116" value="" style="shape=tableRow;horizontal=0;startSize=0;swimlaneHead=0;swimlaneBody=0;strokeColor=inherit;top=0;left=0;bottom=0;right=0;collapsible=0;dropTarget=0;fillColor=none;points=[[0,0.5],[1,0.5]];portConstraint=eastwest;fontSize=16;" parent="hi6TGsPlZXTH8VyN5RC_-115" vertex="1">
          <mxGeometry width="492" height="40" as="geometry" />
        </mxCell>
        <mxCell id="hi6TGsPlZXTH8VyN5RC_-117" value="&lt;u&gt;&lt;font style=&quot;font-size: 13px;&quot;&gt;ID_Cliente&lt;/font&gt;&lt;/u&gt;" style="shape=partialRectangle;html=1;whiteSpace=wrap;connectable=0;strokeColor=#82b366;overflow=hidden;fillColor=#d5e8d4;top=0;left=0;bottom=0;right=0;pointerEvents=1;fontSize=16;" parent="hi6TGsPlZXTH8VyN5RC_-116" vertex="1">
          <mxGeometry width="66" height="40" as="geometry">
            <mxRectangle width="66" height="40" as="alternateBounds" />
          </mxGeometry>
        </mxCell>
        <mxCell id="hi6TGsPlZXTH8VyN5RC_-118" value="&lt;font style=&quot;font-size: 12px;&quot;&gt;Teléfono&lt;/font&gt;" style="shape=partialRectangle;html=1;whiteSpace=wrap;connectable=0;strokeColor=inherit;overflow=hidden;fillColor=none;top=0;left=0;bottom=0;right=0;pointerEvents=1;fontSize=16;" parent="hi6TGsPlZXTH8VyN5RC_-116" vertex="1">
          <mxGeometry x="66" width="54" height="40" as="geometry">
            <mxRectangle width="54" height="40" as="alternateBounds" />
          </mxGeometry>
        </mxCell>
        <mxCell id="hi6TGsPlZXTH8VyN5RC_-119" value="&lt;font style=&quot;font-size: 11px;&quot;&gt;Cod_postal&lt;/font&gt;" style="shape=partialRectangle;html=1;whiteSpace=wrap;connectable=0;strokeColor=inherit;overflow=hidden;fillColor=none;top=0;left=0;bottom=0;right=0;pointerEvents=1;fontSize=16;" parent="hi6TGsPlZXTH8VyN5RC_-116" vertex="1">
          <mxGeometry x="120" width="70" height="40" as="geometry">
            <mxRectangle width="70" height="40" as="alternateBounds" />
          </mxGeometry>
        </mxCell>
        <mxCell id="hi6TGsPlZXTH8VyN5RC_-120" value="&lt;font style=&quot;font-size: 12px;&quot;&gt;Nombre&lt;/font&gt;" style="shape=partialRectangle;html=1;whiteSpace=wrap;connectable=0;strokeColor=inherit;overflow=hidden;fillColor=none;top=0;left=0;bottom=0;right=0;pointerEvents=1;fontSize=16;" parent="hi6TGsPlZXTH8VyN5RC_-116" vertex="1">
          <mxGeometry x="190" width="58" height="40" as="geometry">
            <mxRectangle width="58" height="40" as="alternateBounds" />
          </mxGeometry>
        </mxCell>
        <mxCell id="hi6TGsPlZXTH8VyN5RC_-121" value="&lt;font style=&quot;font-size: 13px;&quot;&gt;Apellido&lt;/font&gt;" style="shape=partialRectangle;html=1;whiteSpace=wrap;connectable=0;strokeColor=inherit;overflow=hidden;fillColor=none;top=0;left=0;bottom=0;right=0;pointerEvents=1;fontSize=16;" parent="hi6TGsPlZXTH8VyN5RC_-116" vertex="1">
          <mxGeometry x="248" width="50" height="40" as="geometry">
            <mxRectangle width="50" height="40" as="alternateBounds" />
          </mxGeometry>
        </mxCell>
        <mxCell id="hi6TGsPlZXTH8VyN5RC_-122" value="&lt;font style=&quot;font-size: 12px;&quot;&gt;DNI&lt;/font&gt;" style="shape=partialRectangle;html=1;whiteSpace=wrap;connectable=0;strokeColor=inherit;overflow=hidden;fillColor=none;top=0;left=0;bottom=0;right=0;pointerEvents=1;fontSize=16;" parent="hi6TGsPlZXTH8VyN5RC_-116" vertex="1">
          <mxGeometry x="298" width="42" height="40" as="geometry">
            <mxRectangle width="42" height="40" as="alternateBounds" />
          </mxGeometry>
        </mxCell>
        <mxCell id="s6F5Ex3EzAu6xgK1WI20-1" value="&lt;font style=&quot;font-size: 13px;&quot;&gt;Email&lt;/font&gt;" style="shape=partialRectangle;html=1;whiteSpace=wrap;connectable=0;strokeColor=inherit;overflow=hidden;fillColor=none;top=0;left=0;bottom=0;right=0;pointerEvents=1;fontSize=16;" vertex="1" parent="hi6TGsPlZXTH8VyN5RC_-116">
          <mxGeometry x="340" width="42" height="40" as="geometry">
            <mxRectangle width="42" height="40" as="alternateBounds" />
          </mxGeometry>
        </mxCell>
        <mxCell id="hi6TGsPlZXTH8VyN5RC_-123" value="&lt;font style=&quot;font-size: 13px;&quot;&gt;ID_género&lt;/font&gt;" style="shape=partialRectangle;html=1;whiteSpace=wrap;connectable=0;strokeColor=inherit;overflow=hidden;fillColor=none;top=0;left=0;bottom=0;right=0;pointerEvents=1;fontSize=16;" parent="hi6TGsPlZXTH8VyN5RC_-116" vertex="1">
          <mxGeometry x="382" width="110" height="40" as="geometry">
            <mxRectangle width="110" height="40" as="alternateBounds" />
          </mxGeometry>
        </mxCell>
        <mxCell id="hi6TGsPlZXTH8VyN5RC_-139" style="edgeStyle=orthogonalEdgeStyle;rounded=0;orthogonalLoop=1;jettySize=auto;html=1;exitX=0.071;exitY=1.015;exitDx=0;exitDy=0;exitPerimeter=0;entryX=0.917;entryY=1.018;entryDx=0;entryDy=0;entryPerimeter=0;strokeWidth=2;fillColor=#fff2cc;strokeColor=#d6b656;endArrow=none;startFill=1;startArrow=classic;" parent="1" source="hi6TGsPlZXTH8VyN5RC_-127" target="hi6TGsPlZXTH8VyN5RC_-3" edge="1">
          <mxGeometry relative="1" as="geometry">
            <mxPoint x="760" y="500" as="targetPoint" />
            <Array as="points">
              <mxPoint x="38" y="500" />
              <mxPoint x="752" y="500" />
            </Array>
          </mxGeometry>
        </mxCell>
        <mxCell id="hi6TGsPlZXTH8VyN5RC_-126" value="" style="shape=table;startSize=0;container=1;collapsible=0;childLayout=tableLayout;fontSize=16;" parent="1" vertex="1">
          <mxGeometry y="420" width="530" height="40" as="geometry" />
        </mxCell>
        <mxCell id="hi6TGsPlZXTH8VyN5RC_-127" value="" style="shape=tableRow;horizontal=0;startSize=0;swimlaneHead=0;swimlaneBody=0;strokeColor=inherit;top=0;left=0;bottom=0;right=0;collapsible=0;dropTarget=0;fillColor=none;points=[[0,0.5],[1,0.5]];portConstraint=eastwest;fontSize=16;" parent="hi6TGsPlZXTH8VyN5RC_-126" vertex="1">
          <mxGeometry width="530" height="40" as="geometry" />
        </mxCell>
        <mxCell id="hi6TGsPlZXTH8VyN5RC_-128" value="&lt;u&gt;&lt;font style=&quot;font-size: 13px;&quot;&gt;ID_Empleado&lt;/font&gt;&lt;/u&gt;" style="shape=partialRectangle;html=1;whiteSpace=wrap;connectable=0;strokeColor=#d6b656;overflow=hidden;fillColor=#fff2cc;top=0;left=0;bottom=0;right=0;pointerEvents=1;fontSize=16;" parent="hi6TGsPlZXTH8VyN5RC_-127" vertex="1">
          <mxGeometry width="80" height="40" as="geometry">
            <mxRectangle width="80" height="40" as="alternateBounds" />
          </mxGeometry>
        </mxCell>
        <mxCell id="hi6TGsPlZXTH8VyN5RC_-129" value="&lt;font style=&quot;font-size: 12px;&quot;&gt;Teléfono&lt;/font&gt;" style="shape=partialRectangle;html=1;whiteSpace=wrap;connectable=0;strokeColor=inherit;overflow=hidden;fillColor=none;top=0;left=0;bottom=0;right=0;pointerEvents=1;fontSize=16;" parent="hi6TGsPlZXTH8VyN5RC_-127" vertex="1">
          <mxGeometry x="80" width="70" height="40" as="geometry">
            <mxRectangle width="70" height="40" as="alternateBounds" />
          </mxGeometry>
        </mxCell>
        <mxCell id="hi6TGsPlZXTH8VyN5RC_-130" value="&lt;font style=&quot;font-size: 12px;&quot;&gt;Email&lt;/font&gt;" style="shape=partialRectangle;html=1;whiteSpace=wrap;connectable=0;strokeColor=inherit;overflow=hidden;fillColor=none;top=0;left=0;bottom=0;right=0;pointerEvents=1;fontSize=16;" parent="hi6TGsPlZXTH8VyN5RC_-127" vertex="1">
          <mxGeometry x="150" width="70" height="40" as="geometry">
            <mxRectangle width="70" height="40" as="alternateBounds" />
          </mxGeometry>
        </mxCell>
        <mxCell id="hi6TGsPlZXTH8VyN5RC_-131" value="&lt;font style=&quot;font-size: 12px;&quot;&gt;Nombre&lt;/font&gt;" style="shape=partialRectangle;html=1;whiteSpace=wrap;connectable=0;strokeColor=inherit;overflow=hidden;fillColor=none;top=0;left=0;bottom=0;right=0;pointerEvents=1;fontSize=16;" parent="hi6TGsPlZXTH8VyN5RC_-127" vertex="1">
          <mxGeometry x="220" width="80" height="40" as="geometry">
            <mxRectangle width="80" height="40" as="alternateBounds" />
          </mxGeometry>
        </mxCell>
        <mxCell id="hi6TGsPlZXTH8VyN5RC_-132" value="&lt;font style=&quot;font-size: 13px;&quot;&gt;Apellido&lt;/font&gt;" style="shape=partialRectangle;html=1;whiteSpace=wrap;connectable=0;strokeColor=inherit;overflow=hidden;fillColor=none;top=0;left=0;bottom=0;right=0;pointerEvents=1;fontSize=16;" parent="hi6TGsPlZXTH8VyN5RC_-127" vertex="1">
          <mxGeometry x="300" width="90" height="40" as="geometry">
            <mxRectangle width="90" height="40" as="alternateBounds" />
          </mxGeometry>
        </mxCell>
        <mxCell id="hi6TGsPlZXTH8VyN5RC_-133" value="&lt;font style=&quot;font-size: 12px;&quot;&gt;DNI&lt;/font&gt;" style="shape=partialRectangle;html=1;whiteSpace=wrap;connectable=0;strokeColor=inherit;overflow=hidden;fillColor=none;top=0;left=0;bottom=0;right=0;pointerEvents=1;fontSize=16;" parent="hi6TGsPlZXTH8VyN5RC_-127" vertex="1">
          <mxGeometry x="390" width="70" height="40" as="geometry">
            <mxRectangle width="70" height="40" as="alternateBounds" />
          </mxGeometry>
        </mxCell>
        <mxCell id="hi6TGsPlZXTH8VyN5RC_-134" value="&lt;font style=&quot;font-size: 13px;&quot;&gt;Rol&lt;/font&gt;" style="shape=partialRectangle;html=1;whiteSpace=wrap;connectable=0;strokeColor=inherit;overflow=hidden;fillColor=none;top=0;left=0;bottom=0;right=0;pointerEvents=1;fontSize=16;" parent="hi6TGsPlZXTH8VyN5RC_-127" vertex="1">
          <mxGeometry x="460" width="70" height="40" as="geometry">
            <mxRectangle width="70" height="40" as="alternateBounds" />
          </mxGeometry>
        </mxCell>
        <mxCell id="hi6TGsPlZXTH8VyN5RC_-60" value="" style="shape=table;startSize=0;container=1;collapsible=0;childLayout=tableLayout;fontSize=16;" parent="1" vertex="1">
          <mxGeometry y="545" width="210" height="40" as="geometry" />
        </mxCell>
        <mxCell id="hi6TGsPlZXTH8VyN5RC_-61" value="" style="shape=tableRow;horizontal=0;startSize=0;swimlaneHead=0;swimlaneBody=0;strokeColor=inherit;top=0;left=0;bottom=0;right=0;collapsible=0;dropTarget=0;fillColor=none;points=[[0,0.5],[1,0.5]];portConstraint=eastwest;fontSize=16;" parent="hi6TGsPlZXTH8VyN5RC_-60" vertex="1">
          <mxGeometry width="210" height="40" as="geometry" />
        </mxCell>
        <mxCell id="hi6TGsPlZXTH8VyN5RC_-62" value="&lt;u&gt;&lt;font style=&quot;font-size: 13px;&quot;&gt;Nro_Mantenimiento&lt;/font&gt;&lt;/u&gt;" style="shape=partialRectangle;html=1;whiteSpace=wrap;connectable=0;strokeColor=inherit;overflow=hidden;fillColor=none;top=0;left=0;bottom=0;right=0;pointerEvents=1;fontSize=16;" parent="hi6TGsPlZXTH8VyN5RC_-61" vertex="1">
          <mxGeometry width="120" height="40" as="geometry">
            <mxRectangle width="120" height="40" as="alternateBounds" />
          </mxGeometry>
        </mxCell>
        <mxCell id="hi6TGsPlZXTH8VyN5RC_-63" value="&lt;u&gt;&lt;font style=&quot;font-size: 13px;&quot;&gt;ID_empleado&lt;/font&gt;&lt;/u&gt;" style="shape=partialRectangle;html=1;whiteSpace=wrap;connectable=0;strokeColor=inherit;overflow=hidden;fillColor=none;top=0;left=0;bottom=0;right=0;pointerEvents=1;fontSize=16;" parent="hi6TGsPlZXTH8VyN5RC_-61" vertex="1">
          <mxGeometry x="120" width="90" height="40" as="geometry">
            <mxRectangle width="90" height="40" as="alternateBounds" />
          </mxGeometry>
        </mxCell>
        <mxCell id="hi6TGsPlZXTH8VyN5RC_-136" style="edgeStyle=orthogonalEdgeStyle;rounded=0;orthogonalLoop=1;jettySize=auto;html=1;entryX=0.055;entryY=1.001;entryDx=0;entryDy=0;entryPerimeter=0;fillColor=#dae8fc;strokeColor=#6c8ebf;strokeWidth=2;" parent="1" source="hi6TGsPlZXTH8VyN5RC_-107" target="hi6TGsPlZXTH8VyN5RC_-3" edge="1">
          <mxGeometry relative="1" as="geometry">
            <Array as="points">
              <mxPoint x="590" y="1130" />
              <mxPoint x="590" y="90" />
              <mxPoint x="45" y="90" />
            </Array>
          </mxGeometry>
        </mxCell>
        <mxCell id="hi6TGsPlZXTH8VyN5RC_-137" style="edgeStyle=orthogonalEdgeStyle;rounded=0;orthogonalLoop=1;jettySize=auto;html=1;entryX=0.832;entryY=1.008;entryDx=0;entryDy=0;entryPerimeter=0;strokeWidth=2;fillColor=#d5e8d4;strokeColor=#82b366;endArrow=none;startFill=1;startArrow=classic;exitX=0.057;exitY=0.985;exitDx=0;exitDy=0;exitPerimeter=0;" parent="1" source="hi6TGsPlZXTH8VyN5RC_-116" target="hi6TGsPlZXTH8VyN5RC_-3" edge="1">
          <mxGeometry relative="1" as="geometry">
            <mxPoint x="680" y="260" as="targetPoint" />
            <mxPoint x="50" y="240" as="sourcePoint" />
            <Array as="points">
              <mxPoint x="28" y="170" />
              <mxPoint x="682" y="170" />
            </Array>
          </mxGeometry>
        </mxCell>
        <mxCell id="hi6TGsPlZXTH8VyN5RC_-140" style="edgeStyle=orthogonalEdgeStyle;rounded=0;orthogonalLoop=1;jettySize=auto;html=1;entryX=1;entryY=0.5;entryDx=0;entryDy=0;strokeWidth=2;fillColor=#fff2cc;strokeColor=#d6b656;exitX=0.07;exitY=1.008;exitDx=0;exitDy=0;exitPerimeter=0;endArrow=none;startFill=1;startArrow=classic;" parent="1" source="hi6TGsPlZXTH8VyN5RC_-127" target="hi6TGsPlZXTH8VyN5RC_-61" edge="1">
          <mxGeometry relative="1" as="geometry">
            <mxPoint x="765" y="131" as="targetPoint" />
            <mxPoint x="60" y="502" as="sourcePoint" />
            <Array as="points">
              <mxPoint x="37" y="490" />
              <mxPoint x="410" y="490" />
              <mxPoint x="410" y="570" />
              <mxPoint x="210" y="570" />
            </Array>
          </mxGeometry>
        </mxCell>
        <mxCell id="hi6TGsPlZXTH8VyN5RC_-144" style="edgeStyle=orthogonalEdgeStyle;rounded=0;orthogonalLoop=1;jettySize=auto;html=1;exitX=0.25;exitY=1;exitDx=0;exitDy=0;strokeWidth=2;fillColor=#f5f5f5;strokeColor=#666666;endArrow=none;startFill=1;startArrow=classic;entryX=0.13;entryY=0.975;entryDx=0;entryDy=0;entryPerimeter=0;" parent="1" source="hi6TGsPlZXTH8VyN5RC_-88" target="hi6TGsPlZXTH8VyN5RC_-32" edge="1">
          <mxGeometry relative="1" as="geometry">
            <mxPoint x="60" y="850" as="targetPoint" />
            <Array as="points">
              <mxPoint x="45" y="950" />
              <mxPoint x="240" y="950" />
              <mxPoint x="240" y="830" />
              <mxPoint x="39" y="830" />
            </Array>
          </mxGeometry>
        </mxCell>
        <mxCell id="hi6TGsPlZXTH8VyN5RC_-145" style="edgeStyle=orthogonalEdgeStyle;rounded=0;orthogonalLoop=1;jettySize=auto;html=1;exitX=0.248;exitY=1.035;exitDx=0;exitDy=0;exitPerimeter=0;strokeWidth=2;fillColor=#a0522d;strokeColor=#6D1F00;entryX=1;entryY=0.5;entryDx=0;entryDy=0;endArrow=none;startFill=1;startArrow=classic;" parent="1" source="hi6TGsPlZXTH8VyN5RC_-98" target="hi6TGsPlZXTH8VyN5RC_-115" edge="1">
          <mxGeometry relative="1" as="geometry">
            <mxPoint x="800" y="219.31034482758622" as="targetPoint" />
            <Array as="points">
              <mxPoint x="45" y="1050" />
              <mxPoint x="790" y="1050" />
              <mxPoint x="790" y="140" />
            </Array>
          </mxGeometry>
        </mxCell>
        <mxCell id="Q-VIjE4dWgzyDxpHVuna-6" value="&lt;h1 style=&quot;margin-top: 0px;&quot;&gt;Género&lt;/h1&gt;" style="text;html=1;whiteSpace=wrap;overflow=hidden;rounded=0;" parent="1" vertex="1">
          <mxGeometry x="10" y="960" width="180" height="40" as="geometry" />
        </mxCell>
        <mxCell id="Q-VIjE4dWgzyDxpHVuna-1" value="" style="shape=table;startSize=0;container=1;collapsible=0;childLayout=tableLayout;fontSize=16;" parent="1" vertex="1">
          <mxGeometry y="310" width="180" height="40" as="geometry" />
        </mxCell>
        <mxCell id="Q-VIjE4dWgzyDxpHVuna-2" value="" style="shape=tableRow;horizontal=0;startSize=0;swimlaneHead=0;swimlaneBody=0;strokeColor=inherit;top=0;left=0;bottom=0;right=0;collapsible=0;dropTarget=0;fillColor=none;points=[[0,0.5],[1,0.5]];portConstraint=eastwest;fontSize=16;" parent="Q-VIjE4dWgzyDxpHVuna-1" vertex="1">
          <mxGeometry width="180" height="40" as="geometry" />
        </mxCell>
        <mxCell id="Q-VIjE4dWgzyDxpHVuna-3" value="&lt;u&gt;&lt;font style=&quot;font-size: 13px;&quot;&gt;ID_Alquiler&lt;/font&gt;&lt;/u&gt;" style="shape=partialRectangle;html=1;whiteSpace=wrap;connectable=0;overflow=hidden;top=0;left=0;bottom=0;right=0;pointerEvents=1;fontSize=16;fillColor=none;" parent="Q-VIjE4dWgzyDxpHVuna-2" vertex="1">
          <mxGeometry width="90" height="40" as="geometry">
            <mxRectangle width="90" height="40" as="alternateBounds" />
          </mxGeometry>
        </mxCell>
        <mxCell id="Q-VIjE4dWgzyDxpHVuna-4" value="&lt;u&gt;&lt;font style=&quot;font-size: 13px;&quot;&gt;ID_Producto&lt;/font&gt;&lt;/u&gt;" style="shape=partialRectangle;html=1;whiteSpace=wrap;connectable=0;strokeColor=inherit;overflow=hidden;fillColor=none;top=0;left=0;bottom=0;right=0;pointerEvents=1;fontSize=16;" parent="Q-VIjE4dWgzyDxpHVuna-2" vertex="1">
          <mxGeometry x="90" width="90" height="40" as="geometry">
            <mxRectangle width="90" height="40" as="alternateBounds" />
          </mxGeometry>
        </mxCell>
        <mxCell id="Q-VIjE4dWgzyDxpHVuna-7" style="edgeStyle=orthogonalEdgeStyle;rounded=0;orthogonalLoop=1;jettySize=auto;html=1;entryX=1;entryY=0.5;entryDx=0;entryDy=0;exitX=0.06;exitY=1.075;exitDx=0;exitDy=0;exitPerimeter=0;strokeWidth=2;fillColor=#e1d5e7;strokeColor=#9673a6;endArrow=none;startFill=1;startArrow=classic;" parent="1" target="Q-VIjE4dWgzyDxpHVuna-2" edge="1">
          <mxGeometry relative="1" as="geometry">
            <mxPoint x="177" y="349" as="targetPoint" />
            <mxPoint x="60" y="250" as="sourcePoint" />
            <Array as="points">
              <mxPoint x="60" y="258" />
              <mxPoint x="380" y="258" />
              <mxPoint x="380" y="330" />
            </Array>
          </mxGeometry>
        </mxCell>
        <mxCell id="Q-VIjE4dWgzyDxpHVuna-8" style="edgeStyle=orthogonalEdgeStyle;rounded=0;orthogonalLoop=1;jettySize=auto;html=1;entryX=0.25;entryY=1;entryDx=0;entryDy=0;exitX=0.06;exitY=1.075;exitDx=0;exitDy=0;exitPerimeter=0;strokeWidth=2;fillColor=#dae8fc;strokeColor=#6c8ebf;endArrow=none;startFill=1;startArrow=classic;" parent="1" target="Q-VIjE4dWgzyDxpHVuna-1" edge="1">
          <mxGeometry relative="1" as="geometry">
            <mxPoint x="137" y="179" as="targetPoint" />
            <mxPoint x="20" y="80" as="sourcePoint" />
            <Array as="points">
              <mxPoint x="20" y="100" />
              <mxPoint x="510" y="100" />
              <mxPoint x="510" y="370" />
              <mxPoint x="45" y="370" />
            </Array>
          </mxGeometry>
        </mxCell>
      </root>
    </mxGraphModel>
  </diagram>
</mxfile>
